<svg width="11" height="11" viewBox="0 0 11 11" fill="none" xmlns="http://www.w3.org/2000/svg">
<path d="M10.9966 6.93965L10.9966 0.217276C10.9966 0.0972578 10.8994 4.76427e-07 10.7794 4.71184e-07L8.83611 3.86239e-07C8.71613 3.80994e-07 8.61887 0.0972904 8.61887 0.217276L8.61887 6.93965L3.86688 2.1862C3.78207 2.10134 3.6445 2.10134 3.55966 2.1862L2.18556 3.56069C2.10076 3.64558 2.10076 3.78316 2.18556 3.86803L6.93759 8.62151L0.217208 8.62151C0.0972594 8.62151 -3.81111e-07 8.7188 -3.86357e-07 8.83882L-4.71328e-07 10.7827C-4.76573e-07 10.9027 0.0971947 11 0.217176 11L9.91372 11C10.5137 11 11 10.5135 11 9.91339L10.9966 6.93965Z" fill="white"/>
</svg>
