<svg width="15" height="13" viewBox="0 0 15 13" fill="none" xmlns="http://www.w3.org/2000/svg">
<path d="M9.10141 0.00352859H0.539429C0.386568 0.00352859 0.262695 0.112613 0.262695 0.247143V2.42668C0.262695 2.56125 0.386609 2.67033 0.539429 2.67033H9.10141L3.04716 7.99998C2.93907 8.09509 2.93907 8.24939 3.04716 8.34454L4.79778 9.88567C4.90591 9.98079 5.08114 9.98079 5.18922 9.88567L11.2435 4.55599V12.0933C11.2435 12.2278 11.3674 12.3369 11.5203 12.3369H13.9962C14.149 12.3369 14.2728 12.2279 14.2729 12.0933V1.21808C14.2729 0.545206 13.6533 -0.000247955 12.8889 -0.000247955L9.10141 0.00352859Z" fill="white"/>
</svg>
