<svg width="108" height="108" viewBox="0 0 108 108" fill="none" xmlns="http://www.w3.org/2000/svg">
<path d="M105.666 53.9996C106.955 53.9996 108.005 55.0452 107.95 56.3332C107.565 65.2311 104.984 73.909 100.422 81.5861C95.4616 89.933 88.3426 96.7882 79.8143 101.43C71.286 106.071 61.664 108.328 51.9613 107.961C42.2587 107.595 32.8344 104.619 24.6806 99.3468C16.5269 94.075 9.94536 86.7022 5.62906 78.0048C1.31276 69.3074 -0.578661 59.607 0.153952 49.9251C0.886565 40.2432 4.2161 30.938 9.79201 22.9891C14.9204 15.6781 21.7747 9.76324 29.7308 5.76055C30.8824 5.18118 32.267 5.70982 32.796 6.88539C33.3251 8.06096 32.7981 9.43786 31.6488 10.0219C24.4572 13.677 18.2602 19.0462 13.6139 25.67C8.52 32.9317 5.47831 41.4325 4.80903 50.2774C4.13975 59.1223 5.86765 67.984 9.81081 75.9295C13.754 83.875 19.7665 90.6104 27.2153 95.4265C34.6642 100.243 43.2737 102.961 52.1376 103.296C61.0014 103.631 69.7916 101.57 77.5826 97.3294C85.3736 93.0891 91.8772 86.8265 96.4086 79.2012C100.542 72.2457 102.895 64.3911 103.276 56.333C103.337 55.0453 104.377 53.9996 105.666 53.9996Z" fill="white"/>
<path d="M41.5021 3.86854C41.1903 2.61769 41.9508 1.34564 43.2139 1.08815C50.1302 -0.321732 57.2637 -0.363435 64.2097 0.973985C71.1557 2.31141 77.7637 4.99896 83.662 8.87621C84.7392 9.58434 84.973 11.0478 84.219 12.0934C83.465 13.1391 82.0089 13.3704 80.9288 12.6667C75.5833 9.18408 69.6064 6.76722 63.3271 5.55817C57.0477 4.34912 50.6007 4.37381 44.3442 5.62255C43.08 5.87488 41.814 5.1194 41.5021 3.86854Z" fill="white"/>
<path d="M92.5333 19.4669C93.4449 18.5554 94.9269 18.552 95.7983 19.5021C100.775 24.9286 104.589 31.3159 107.007 38.2707C107.43 39.4884 106.724 40.7916 105.489 41.1618C104.254 41.532 102.959 40.8289 102.53 39.613C100.341 33.3968 96.9283 27.6818 92.4937 22.8064C91.6263 21.8528 91.6218 20.3785 92.5333 19.4669Z" fill="white"/>
</svg>
