<svg width="121" height="103" viewBox="0 0 121 103" fill="none" xmlns="http://www.w3.org/2000/svg">
<path d="M119.125 74.3961H84.9606H61.1164L102.135 33.3782C102.867 32.6459 102.867 31.4587 102.135 30.7264L90.2734 18.8655C89.5414 18.1332 88.3542 18.1332 87.622 18.8655L46.6041 59.8832V1.87518C46.6041 0.839539 45.7646 0 44.7292 0H27.9551C26.9195 0 26.08 0.839539 26.08 1.87518V59.8838L-14.9382 18.8655C-15.6705 18.1332 -16.8576 18.1332 -17.5902 18.8655L-29.4508 30.7264C-30.1831 31.4587 -30.1831 32.6459 -29.4508 33.3782L-0.845457 61.9836C2.26036 65.0894 6.47236 66.8342 10.8647 66.8342H37.4803C46.743 66.8342 54.2518 74.3431 54.2518 83.6058V110.221C54.2518 114.613 55.9966 118.826 59.1024 121.931L87.622 150.451C88.3542 151.183 89.5414 151.183 90.2734 150.451L102.135 138.59C102.867 137.858 102.867 136.67 102.135 135.938L61.1164 94.9204H119.125C120.16 94.9204 121 94.0806 121 93.0449V76.2713C121 75.2357 120.16 74.3961 119.125 74.3961Z" fill="white" fill-opacity="0.03"/>
</svg>
