<svg width="1377" height="1377" viewBox="0 0 1377 1377" fill="none" xmlns="http://www.w3.org/2000/svg">
<g clip-path="url(#clip0_7_630)">
<path d="M0 1376.32H1376.32V0.00244141H0V1376.32Z" fill="#D1E40F"/>
<mask id="mask0_7_630" style="mask-type:luminance" maskUnits="userSpaceOnUse" x="0" y="0" width="1377" height="1377">
<path d="M0.000244141 0.00292969H1376.32V1376.32H0.000244141V0.00292969Z" fill="white"/>
</mask>
<g mask="url(#mask0_7_630)">
<path d="M1080.36 640.734H918.936H806.275L1000.08 446.929C1003.54 443.469 1003.54 437.859 1000.08 434.399L944.039 378.358C940.58 374.898 934.971 374.898 931.511 378.358L737.705 572.162V298.081C737.705 293.187 733.739 289.221 728.847 289.221H649.591C644.697 289.221 640.731 293.187 640.731 298.081V572.165L446.924 378.358C443.464 374.898 437.855 374.898 434.393 378.358L378.353 434.399C374.893 437.859 374.893 443.469 378.353 446.929L513.511 582.086C528.185 596.761 548.087 605.005 568.84 605.005H694.596C738.361 605.005 773.84 640.483 773.84 684.249V810.003C773.84 830.755 782.084 850.658 796.759 865.333L931.511 1000.08C934.971 1003.54 940.58 1003.54 944.039 1000.08L1000.08 944.043C1003.54 940.583 1003.54 934.973 1000.08 931.514L806.275 737.709H1080.36C1085.25 737.709 1089.22 733.741 1089.22 728.847V649.594C1089.22 644.701 1085.25 640.734 1080.36 640.734Z" fill="#231F20"/>
</g>
<mask id="mask1_7_630" style="mask-type:luminance" maskUnits="userSpaceOnUse" x="0" y="0" width="1377" height="1377">
<path d="M0.000244141 0.00292969H1376.32V1376.32H0.000244141V0.00292969Z" fill="white"/>
</mask>
<g mask="url(#mask1_7_630)">
<path d="M572.158 640.734H298.077C293.184 640.734 289.219 644.701 289.219 649.593V728.849C289.219 733.742 293.185 737.709 298.077 737.709H572.158L378.353 931.514C374.893 934.973 374.893 940.583 378.353 944.043L434.393 1000.08C437.855 1003.54 443.464 1003.54 446.924 1000.08L640.73 806.278V1080.36C640.73 1085.25 644.697 1089.22 649.59 1089.22H728.846C733.738 1089.22 737.704 1085.26 737.705 1080.36V684.899C737.705 660.431 717.87 640.597 693.402 640.597L572.158 640.734Z" fill="#231F20"/>
</g>
</g>
<defs>
<clipPath id="clip0_7_630">
<rect width="1376.32" height="1376.32" fill="white"/>
</clipPath>
</defs>
</svg>
