<svg width="18" height="18" viewBox="0 0 18 18" fill="none" xmlns="http://www.w3.org/2000/svg">
<path d="M17.125 8.99998C17.1224 10.9858 16.3938 12.9021 15.0764 14.388C13.7591 15.8739 11.9438 16.8268 9.97262 17.0672C9.92873 17.0721 9.88428 17.0677 9.84221 17.0543C9.80014 17.0408 9.7614 17.0186 9.72855 16.9891C9.6957 16.9595 9.66948 16.9234 9.65163 16.883C9.63377 16.8426 9.62468 16.7988 9.62496 16.7547V10.875H11.5C11.5856 10.8752 11.6704 10.8577 11.7491 10.8238C11.8278 10.7898 11.8986 10.74 11.9572 10.6775C12.0158 10.615 12.061 10.5412 12.0898 10.4605C12.1187 10.3798 12.1306 10.2941 12.125 10.2086C12.1112 10.0479 12.037 9.89833 11.9174 9.79006C11.7979 9.68179 11.6417 9.62281 11.4804 9.62498H9.62496V7.74998C9.62496 7.41846 9.75666 7.10052 9.99108 6.8661C10.2255 6.63168 10.5434 6.49998 10.875 6.49998H12.125C12.2106 6.50017 12.2954 6.48274 12.3741 6.44877C12.4528 6.41481 12.5236 6.36503 12.5822 6.30253C12.6408 6.24004 12.686 6.16616 12.7148 6.08549C12.7437 6.00481 12.7556 5.91907 12.75 5.83357C12.7361 5.67258 12.6618 5.52283 12.5419 5.41452C12.422 5.30621 12.2654 5.24741 12.1039 5.24998H10.875C10.2119 5.24998 9.57604 5.51337 9.1072 5.98221C8.63836 6.45105 8.37496 7.08694 8.37496 7.74998V9.62498H6.49996C6.41428 9.62479 6.32948 9.64222 6.25082 9.67619C6.17216 9.71016 6.10133 9.75993 6.04271 9.82243C5.9841 9.88492 5.93896 9.9588 5.91011 10.0395C5.88125 10.1201 5.86929 10.2059 5.87496 10.2914C5.88879 10.4524 5.96316 10.6021 6.08306 10.7104C6.20297 10.8187 6.3595 10.8776 6.52106 10.875H8.37496V16.7562C8.37523 16.8003 8.36616 16.844 8.34835 16.8843C8.33055 16.9247 8.3044 16.9608 8.27164 16.9903C8.23887 17.0198 8.20023 17.0421 8.15826 17.0556C8.11628 17.0691 8.07192 17.0736 8.02809 17.0687C6.00415 16.8223 4.1465 15.8249 2.82283 14.2741C1.49917 12.7233 0.805968 10.732 0.880433 8.69451C1.03668 4.47576 4.45387 1.04607 8.67575 0.882011C9.76878 0.839672 10.8591 1.01822 11.8816 1.40698C12.904 1.79574 13.8376 2.38673 14.6263 3.14459C15.4151 3.90244 16.0429 4.81161 16.4723 5.81769C16.9016 6.82378 17.1236 7.90612 17.125 8.99998Z" fill="#333333"/>
</svg>
