<svg width="108" height="108" viewBox="0 0 108 108" fill="none" xmlns="http://www.w3.org/2000/svg">
<g clip-path="url(#clip0_429_84)">
<path d="M21.3848 78.0131C25.0906 70.5515 27.0128 62.3312 26.9999 54C26.9928 49.949 27.8995 45.9485 29.6525 42.2964C31.4055 38.6443 33.9597 35.4346 37.1249 32.9062" stroke="white" stroke-width="2" stroke-linecap="round" stroke-linejoin="round"/>
<path d="M54 54C54.02 67.7268 50.5349 81.2314 43.875 93.2344" stroke="white" stroke-width="2" stroke-linecap="round" stroke-linejoin="round"/>
<path d="M40.5 54C40.5 50.4196 41.9223 46.9858 44.4541 44.4541C46.9858 41.9223 50.4196 40.5 54 40.5C57.5804 40.5 61.0142 41.9223 63.5459 44.4541C66.0777 46.9858 67.5 50.4196 67.5 54C67.5196 67.9157 64.4535 81.6626 58.5225 94.2511" stroke="white" stroke-width="2" stroke-linecap="round" stroke-linejoin="round"/>
<path d="M92.205 77.625C93.7354 69.8432 94.504 61.9308 94.5 54C94.5 43.2587 90.2331 32.9574 82.6379 25.3622C75.0426 17.767 64.7413 13.5 54 13.5C43.2588 13.5 32.9574 17.767 25.3622 25.3622C17.767 32.9574 13.5 43.2587 13.5 54C13.5044 58.5985 12.724 63.1641 11.1924 67.5" stroke="white" stroke-width="2" stroke-linecap="round" stroke-linejoin="round"/>
<path d="M39.1541 67.5C37.7126 74.5962 35.1311 81.412 31.5098 87.6825" stroke="white" stroke-width="2" stroke-linecap="round" stroke-linejoin="round"/>
<path d="M50.625 27.2109C51.7448 27.0737 52.8719 27.0047 54 27.0042C61.1608 27.0042 68.0284 29.8488 73.0919 34.9123C78.1554 39.9758 81 46.8434 81 54.0042C80.9969 58.5173 80.7151 63.0259 80.1562 67.5042" stroke="white" stroke-width="2" stroke-linecap="round" stroke-linejoin="round"/>
<path d="M77.5994 81C76.9581 83.4975 76.2297 85.9584 75.4141 88.3828" stroke="white" stroke-width="2" stroke-linecap="round" stroke-linejoin="round"/>
</g>
<defs>
<clipPath id="clip0_429_84">
<rect width="108" height="108" fill="white"/>
</clipPath>
</defs>
</svg>
