<svg width="479" height="105" viewBox="0 0 479 105" fill="none" xmlns="http://www.w3.org/2000/svg">
<path d="M153.531 46.2815V16.2682L141.803 32.2838L130.139 16.2682V46.2815H121.752V1.38684H129.634L141.803 18.0966L153.973 1.38684H161.918V46.2815H153.531Z" fill="#C7C7C7"/>
<path d="M176.797 23.519C176.797 31.8421 183.543 38.5886 191.803 38.5886C200.063 38.5886 206.81 31.8421 206.81 23.519C206.81 15.1336 200.063 8.38586 191.803 8.38586C183.543 8.38586 176.797 15.1336 176.797 23.519ZM168.348 23.519C168.348 10.5302 178.877 0.00044632 191.803 0.00044632C204.793 0.00044632 215.322 10.5302 215.322 23.519C215.322 36.4455 204.793 46.9117 191.803 46.9117C178.877 46.9117 168.348 36.4455 168.348 23.519Z" fill="#C7C7C7"/>
<path d="M227.427 23.519C227.427 31.8421 234.174 38.5886 242.434 38.5886C250.694 38.5886 257.441 31.8421 257.441 23.519C257.441 15.1336 250.694 8.38586 242.434 8.38586C234.174 8.38586 227.427 15.1336 227.427 23.519ZM218.979 23.519C218.979 10.5302 229.508 0.00044632 242.434 0.00044632C255.424 0.00044632 265.953 10.5302 265.953 23.519C265.953 36.4455 255.424 46.9117 242.434 46.9117C229.508 46.9117 218.979 36.4455 218.979 23.519Z" fill="#C7C7C7"/>
<path d="M300.884 46.2815L280.959 16.8353V46.2815H272.51V1.38684H280.707L300.569 30.7701V1.38684H309.018V46.2815H300.884Z" fill="#C7C7C7"/>
<path d="M330.388 46.1553C325.721 45.2093 321.182 42.9397 317.21 39.4724L316.012 38.3999L321.56 32.094L322.758 33.1665C325.659 35.6891 328.875 37.3916 332.027 38.0216H332.09C333.036 38.2104 333.982 38.3363 334.928 38.3363C336.505 38.3363 337.954 38.0216 339.152 37.4539C340.666 36.8233 342.431 35.4367 342.431 32.8505C342.431 31.464 341.738 30.3915 340.288 29.5091C338.522 28.4372 336.125 27.8701 334.424 27.5542C333.666 27.4283 327.236 26.1041 324.272 24.4651C322.318 23.2667 320.804 21.7537 319.731 19.9876C318.66 18.1592 318.156 16.142 318.156 13.9354C318.156 11.5386 318.913 9.14315 320.363 6.93649C321.75 5.10748 323.641 3.59378 325.911 2.52192C328.18 1.4507 330.703 0.882351 333.414 0.882351C334.486 0.882351 335.621 1.00886 336.757 1.13474C340.918 1.89127 345.016 3.78323 348.611 6.80936L349.808 7.8189L344.45 14.3136L343.251 13.3047C339.152 9.96199 335.621 9.20546 333.352 9.20546C331.901 9.20546 330.577 9.52141 329.442 10.0256C327.676 10.845 326.541 12.3587 326.541 13.8718C326.541 15.2596 327.046 16.142 328.244 16.9608C329.442 17.7809 331.271 18.4116 334.171 19.0429C334.55 19.1052 335.054 19.2311 335.559 19.3576C338.206 19.8617 341.738 20.6183 344.197 22.0684C346.341 23.2044 347.98 24.7798 349.115 26.6082C350.25 28.4372 350.818 30.5809 350.818 32.8505C350.818 35.6891 350.061 38.2104 348.548 40.3548C347.223 42.1832 345.268 43.7598 342.684 45.0205C340.477 46.1553 338.018 46.6594 334.928 46.6594C333.478 46.6594 331.964 46.4706 330.388 46.1553Z" fill="#C7C7C7"/>
<path d="M384.236 46.2815V24.5278H366.013V46.2815H357.564V1.38684H366.013V16.2682H384.236V1.38684H392.685V46.2815H384.236Z" fill="#C7C7C7"/>
<path d="M406.744 23.519C406.744 31.8421 413.49 38.5886 421.75 38.5886C430.011 38.5886 436.757 31.8421 436.757 23.519C436.757 15.1336 430.011 8.38586 421.75 8.38586C413.49 8.38586 406.744 15.1336 406.744 23.519ZM398.295 23.519C398.295 10.5302 408.825 0.00044632 421.75 0.00044632C434.74 0.00044632 445.27 10.5302 445.27 23.519C445.27 36.4455 434.74 46.9117 421.75 46.9117C408.825 46.9117 398.295 36.4455 398.295 23.519Z" fill="#C7C7C7"/>
<path d="M459.517 46.2815V9.70994H448.482V1.38684H479V9.70994H467.966V46.2815H459.517Z" fill="#C7C7C7"/>
<path d="M146.167 82.7995C143.263 81.2267 139.95 80.5645 138.156 80.2071C137.812 80.1491 137.468 80.0931 137.269 80.044C137.019 79.9616 136.725 79.9056 136.415 79.847C136.241 79.8137 136.057 79.7791 135.855 79.735C130.851 78.7563 125.511 77.2401 125.511 71.5869C125.455 68.6451 127.321 65.9035 130.377 64.4326C135.414 62.0862 141.903 63.5715 147.732 68.4084L148.047 68.6703L150.037 66.2043L149.73 65.9494C146.261 63.068 142.631 61.3322 138.635 60.6449C135.078 60.0092 131.755 60.349 129.021 61.6273C126.95 62.6319 125.322 63.9945 124.182 65.6737C122.972 67.4285 122.332 69.4759 122.332 71.5944C122.332 75.4186 124.035 78.3485 127.394 80.3033C129.944 81.7856 133.037 82.4024 135.084 82.8115L135.215 82.8373C135.398 82.8782 135.568 82.9122 135.726 82.9437C136.013 83.0016 136.259 83.0488 136.535 83.1362C136.823 83.1948 137.114 83.2527 137.606 83.3754C138.673 83.5598 141.92 84.12 144.591 85.5814C147.284 87.0964 148.593 89.1721 148.593 91.9289C148.593 95.6404 146.692 98.6395 143.379 100.155C139.162 102.037 131.889 101.654 124.127 94.9424L123.821 94.6781L121.752 97.066L122.055 97.331C125.735 100.543 129.915 102.767 134.144 103.763L134.15 103.764C135.602 104.08 137.046 104.247 138.327 104.247C140.536 104.247 142.685 103.797 144.719 102.907C146.957 101.884 148.691 100.438 149.866 98.6168C151.113 96.7752 151.773 94.4622 151.773 91.9289C151.773 89.7915 151.227 87.9341 150.102 86.2461C149.182 84.8979 147.859 83.7392 146.167 82.7995Z" fill="#C7C7C7"/>
<path d="M155.703 63.5217H167.737V103.478H170.916V63.5217H182.951V60.461H155.703V63.5217Z" fill="#C7C7C7"/>
<path d="M217.712 88.1349C217.712 95.5277 211.697 101.542 204.303 101.542C196.943 101.542 190.954 95.5277 190.954 88.1349V60.461H187.775V88.1349C187.775 92.5847 189.502 96.7299 192.633 99.7988C195.671 102.897 199.816 104.604 204.303 104.604C208.77 104.604 212.935 102.899 216.03 99.8019C219.12 96.7141 220.892 92.4613 220.892 88.1349V60.461H217.712V88.1349Z" fill="#C7C7C7"/>
<path d="M260.45 81.9693C260.45 92.1409 252.174 100.416 242.002 100.416H230.728V63.5217H242.002C252.174 63.5217 260.45 71.7976 260.45 81.9693ZM257.222 66.7392C255.182 64.7616 252.888 63.2184 250.402 62.1541C247.801 61.0306 244.975 60.461 242.002 60.461H227.549V103.478H242.002C244.974 103.478 247.8 102.908 250.401 101.784C252.889 100.718 255.184 99.1756 257.227 97.1937C259.161 95.2595 260.707 92.9623 261.817 90.3692C262.941 87.7679 263.51 84.9425 263.51 81.9693C263.51 78.9765 262.94 76.1694 261.819 73.6317C260.722 71.0115 259.177 68.6941 257.222 66.7392Z" fill="#C7C7C7"/>
<path d="M272.186 103.478H275.365V60.4615H272.186V103.478Z" fill="#C7C7C7"/>
<path d="M325.064 81.6735C325.064 92.3681 316.389 101.069 305.727 101.069C295.065 101.069 286.391 92.3681 286.391 81.6735C286.391 70.9775 295.065 62.2762 305.727 62.2762C316.389 62.2762 325.064 70.9775 325.064 81.6735ZM326.491 72.9167C325.351 70.2777 323.728 67.8633 321.663 65.7366C319.615 63.6892 317.22 62.0647 314.537 60.9072C311.88 59.8083 308.998 59.2746 305.727 59.2746C302.54 59.2746 299.597 59.824 296.971 60.9091C294.332 62.049 291.917 63.6715 289.787 65.7404C287.691 67.8998 286.087 70.316 285.022 72.9161C283.821 75.6823 283.211 78.6284 283.211 81.6735C283.211 84.7619 283.804 87.6256 285.019 90.4183C286.102 93.1278 287.729 95.5484 289.851 97.6091C291.897 99.6546 294.293 101.279 296.971 102.437L296.978 102.439C299.692 103.561 302.635 104.129 305.727 104.129C308.858 104.129 311.822 103.561 314.542 102.437C317.22 101.28 319.616 99.6552 321.663 97.6091C323.726 95.5459 325.351 93.1284 326.491 90.429C327.67 87.7169 328.243 84.8525 328.243 81.6735C328.243 78.5397 327.654 75.5929 326.491 72.9167Z" fill="#C7C7C7"/>
<path d="M103.444 45.9621H82.3374H67.6065L92.9478 20.6215C93.3997 20.1689 93.3997 19.4351 92.9478 18.9831L85.6197 11.6551C85.1672 11.2026 84.434 11.2026 83.9814 11.6551L58.6408 36.9958V1.15871C58.6408 0.518616 58.1221 0 57.4821 0H47.1191C46.4796 0 45.961 0.518616 45.961 1.15871V36.9964L20.6197 11.6551C20.1672 11.2026 19.4339 11.2026 18.9814 11.6551L11.6534 18.9831C11.2015 19.4351 11.2015 20.1689 11.6534 20.6215L29.3261 38.2936C31.2445 40.2126 33.8471 41.2901 36.5604 41.2901H53.0039C58.7264 41.2901 63.3656 45.9294 63.3656 51.6518V68.0947C63.3656 70.8081 64.4431 73.4106 66.3622 75.3296L83.9814 92.9489C84.434 93.4014 85.1672 93.4014 85.6197 92.9489L92.9478 85.6208C93.3997 85.1689 93.3997 84.4351 92.9478 83.9832L67.6065 58.6419H103.444C104.084 58.6419 104.603 58.1233 104.603 57.4832V47.1208C104.603 46.4807 104.084 45.9621 103.444 45.9621Z" fill="#C7C7C7"/>
<path d="M36.9958 45.9621H1.15808C0.518621 45.9621 0 46.4807 0 47.1202V57.4838C0 58.1233 0.51862 58.6419 1.15871 58.6419H36.9958L11.6545 83.9832C11.2026 84.4351 11.2026 85.169 11.6545 85.6209L18.9825 92.9489C19.435 93.4014 20.1683 93.4014 20.6208 92.9489L45.9621 67.6076V103.445C45.9621 104.085 46.4807 104.604 47.1202 104.604H57.4832C58.1232 104.604 58.6419 104.085 58.6419 103.446V51.7368C58.6419 48.5376 56.0481 45.9439 52.8489 45.9439L36.9958 45.9621Z" fill="#C7C7C7"/>
</svg>
