<svg width="100" height="100" viewBox="0 0 100 100" fill="none" xmlns="http://www.w3.org/2000/svg">
<path d="M98.8972 43.7473H78.8075H64.7863L88.9063 19.6274C89.3369 19.1968 89.3369 18.4987 88.9063 18.0681L81.9316 11.0935C81.5011 10.6629 80.803 10.6629 80.3724 11.0935L56.2526 35.2132V1.10268C56.2526 0.493675 55.7589 7.62939e-06 55.1501 7.62939e-06H45.2863C44.6773 7.62939e-06 44.1837 0.493675 44.1837 1.10268V35.2135L20.0637 11.0935C19.633 10.6629 18.9349 10.6629 18.5042 11.0935L11.5297 18.0681C11.0991 18.4987 11.0991 19.1968 11.5297 19.6274L28.3506 36.4483C30.177 38.2746 32.6538 39.3006 35.2366 39.3006H50.8874C56.3342 39.3006 60.7497 43.7161 60.7497 49.1628V64.8135C60.7497 67.3962 61.7757 69.8732 63.602 71.6995L80.3724 88.4699C80.803 88.9004 81.5011 88.9004 81.9316 88.4699L88.9063 81.4953C89.3369 81.0647 89.3369 80.3665 88.9063 79.936L64.7863 55.8162H98.897C99.506 55.8162 99.9998 55.3223 99.9998 54.7133V44.8499C99.9998 44.2409 99.5062 43.7473 98.8972 43.7473Z" fill="white"/>
<path d="M35.6498 43.7473H1.53926C0.930269 43.7473 0.436768 44.241 0.436768 44.8498V54.7135C0.436768 55.3225 0.930435 55.8162 1.53926 55.8162H35.6498L11.5299 79.9361C11.0993 80.3665 11.0993 81.0648 11.5299 81.4954L18.5043 88.47C18.9351 88.9004 19.6332 88.9004 20.0638 88.47L44.1839 64.3499V98.4608C44.1839 99.0696 44.6775 99.5633 45.2865 99.5633H55.1503C55.7591 99.5633 56.2526 99.07 56.2528 98.461V49.2439C56.2528 46.1987 53.7842 43.7302 50.7391 43.7302L35.6498 43.7473Z" fill="white"/>
</svg>
