<svg width="483" height="76" viewBox="0 0 483 76" fill="none" xmlns="http://www.w3.org/2000/svg">
<path d="M17.0634 10.12V47.992H38.5914V58H4.24738V10.12H17.0634ZM93.5988 58H80.8548L77.7588 49H57.1668L54.0708 58H41.3988L57.7428 10.12H77.2548L93.5988 58ZM67.4628 18.904L60.4068 39.424H74.5188L67.4628 18.904ZM95.9984 39.784V10.12H108.742V38.128C108.742 46.48 111.766 48.784 118.246 48.784C124.798 48.784 127.894 46.48 127.894 38.128V10.12H140.566V39.784C140.566 52.528 133.078 59.152 118.246 59.152C103.558 59.152 95.9984 52.6 95.9984 39.784ZM184.117 48.208V10.12H196.213V58H175.405L162.085 26.752C161.149 24.592 160.429 22.288 159.781 19.984V58H147.685V10.12H168.493L181.957 42.016C182.749 43.888 183.469 46.048 184.117 48.208ZM227.569 59.152C209.065 59.152 202.153 47.272 202.153 34.096C202.153 21.28 209.137 8.896 227.641 8.896C244.777 8.896 251.545 15.736 252.553 29.488H239.521C238.945 23.008 236.209 19.264 227.857 19.264C219.145 19.264 215.401 24.232 215.401 34.096C215.401 43.816 218.857 48.856 227.497 48.856C236.065 48.856 239.161 45.256 239.665 38.272H252.841C251.689 52.96 245.137 59.152 227.569 59.152ZM291.115 28.768V10.12H303.787V58H291.115V38.632H271.099V58H258.427V10.12H271.099V28.768H291.115ZM324.399 10.12V47.992H345.927V58H311.583V10.12H324.399ZM400.935 58H388.191L385.095 49H364.503L361.407 58H348.735L365.079 10.12H384.591L400.935 58ZM374.799 18.904L367.743 39.424H381.855L374.799 18.904ZM437.358 33.304C443.406 34.384 448.086 37.12 448.086 44.968C448.086 53.176 442.614 58 432.39 58H404.958V10.12H432.894C443.118 10.12 447.366 15.448 447.366 21.928C447.366 28.984 443.118 32.08 437.358 33.304ZM428.862 19.624H417.63V29.488H428.79C432.894 29.488 434.118 27.328 434.118 24.52C434.118 21.424 432.606 19.624 428.862 19.624ZM417.63 48.496H429.15C433.47 48.496 434.838 46.264 434.838 43.168C434.838 40.072 433.326 37.768 428.79 37.768H417.63V48.496Z" fill="url(#paint0_linear_51_1182)"/>
<path d="M480.862 11.04V24.336H477.334V13.344L474.142 24.336H470.206L466.966 13.176V24.336H463.462V13.824H459.982V24.336H456.454V13.824H452.182V11.04H469.51L472.222 20.736L474.934 11.04H480.862Z" fill="#333333"/>
<defs>
<linearGradient id="paint0_linear_51_1182" x1="0" y1="38" x2="663.678" y2="38" gradientUnits="userSpaceOnUse">
<stop stop-color="#D1E40F"/>
<stop offset="1" stop-color="#FF6B1A"/>
</linearGradient>
</defs>
</svg>
