<svg width="41" height="43" viewBox="0 0 41 43" fill="none" xmlns="http://www.w3.org/2000/svg">
<path d="M19.2754 0.995117C19.8947 0.19305 21.1053 0.19305 21.7246 0.995117L24.6973 4.8457C25.2125 5.51307 26.0845 5.79666 26.8936 5.55957L31.5615 4.19141C32.534 3.90644 33.5133 4.61801 33.543 5.63086L33.6846 10.4941C33.7092 11.3368 34.2482 12.0786 35.042 12.3623L39.623 13.999C40.577 14.3402 40.9511 15.4914 40.3799 16.3281L37.6357 20.3457C37.1604 21.0419 37.1604 21.9581 37.6357 22.6543L40.3799 26.6719C40.9511 27.5086 40.577 28.6598 39.623 29.001L35.042 30.6377C34.2482 30.9214 33.7092 31.6632 33.6846 32.5059L33.543 37.3691C33.5133 38.382 32.534 39.0936 31.5615 38.8086L26.8936 37.4404C26.0845 37.2033 25.2125 37.4869 24.6973 38.1543L21.7246 42.0049C21.1053 42.807 19.8947 42.807 19.2754 42.0049L16.3027 38.1543C15.7875 37.4869 14.9155 37.2033 14.1064 37.4404L9.43848 38.8086C8.46604 39.0936 7.48669 38.382 7.45703 37.3691L7.31543 32.5059C7.29079 31.6632 6.75183 30.9214 5.95801 30.6377L1.37695 29.001C0.422977 28.6598 0.0489039 27.5086 0.620117 26.6719L3.36426 22.6543C3.83965 21.9581 3.83965 21.0419 3.36426 20.3457L0.620117 16.3281C0.0489046 15.4914 0.422977 14.3402 1.37695 13.999L5.95801 12.3623C6.75183 12.0786 7.29079 11.3368 7.31543 10.4941L7.45703 5.63086C7.48669 4.61802 8.46604 3.90644 9.43848 4.19141L14.1064 5.55957C14.9155 5.79666 15.7875 5.51307 16.3027 4.8457L19.2754 0.995117Z" stroke="white" stroke-width="0.5"/>
</svg>
