<svg width="78" height="78" viewBox="0 0 78 78" fill="none" xmlns="http://www.w3.org/2000/svg">
<path d="M36.1575 46.5645L37.6283 34.7308H39.5216L38.0678 46.5645H36.1575ZM29.9026 43.8597V42.017H40.8233V43.8597H29.9026ZM31.779 46.5645L33.2498 34.7308H35.1432L33.6724 46.5645H31.779ZM30.4773 39.2784V37.4357H41.3812L41.3981 39.2784H30.4773ZM44.2167 46.5645V35.7452L45.4 36.9285H41.8499V34.7308H46.9553V46.5645H44.2167Z" fill="white"/>
<path d="M56.6126 18.8709C58.4557 14.084 50.3223 12.5806 50.3223 12.5806C50.3223 12.5806 51.7942 20.6826 56.6126 18.8709Z" stroke="white" stroke-width="1.25806" stroke-linecap="round" stroke-linejoin="round"/>
<path d="M62.8465 25.1298C67.5328 23.0477 62.8465 16.2793 62.8465 16.2793C62.8465 16.2793 58.1602 23.0477 62.8465 25.1298Z" stroke="white" stroke-width="1.25806" stroke-linecap="round" stroke-linejoin="round"/>
<path d="M66.4316 34.3265C71.5582 34.2258 69.8661 26.149 69.8661 26.149C69.8661 26.149 62.9027 30.59 66.4316 34.3265Z" stroke="white" stroke-width="1.25806" stroke-linecap="round" stroke-linejoin="round"/>
<path d="M66.3067 42.8935C70.5779 45.7367 73.7796 38.1506 73.7796 38.1506C73.7796 38.1506 65.5519 37.8172 66.3067 42.8935Z" stroke="white" stroke-width="1.25806" stroke-linecap="round" stroke-linejoin="round"/>
<path d="M63.3691 51.0081C66.5143 55.0528 71.9617 48.8757 71.9617 48.8757C71.9617 48.8757 64.2624 45.957 63.3691 51.0081Z" stroke="white" stroke-width="1.25806" stroke-linecap="round" stroke-linejoin="round"/>
<path d="M57.6387 58.4997C59.7837 63.1545 66.4892 58.3802 66.4892 58.3802C66.4892 58.3802 59.6579 53.7819 57.6387 58.4997Z" stroke="white" stroke-width="1.25806" stroke-linecap="round" stroke-linejoin="round"/>
<path d="M21.387 18.8709C19.544 14.084 27.6774 12.5806 27.6774 12.5806C27.6774 12.5806 26.2054 20.6826 21.387 18.8709Z" stroke="white" stroke-width="1.25806" stroke-linecap="round" stroke-linejoin="round"/>
<path d="M15.1531 25.1298C10.4668 23.0477 15.1531 16.2793 15.1531 16.2793C15.1531 16.2793 19.8394 23.0477 15.1531 25.1298Z" stroke="white" stroke-width="1.25806" stroke-linecap="round" stroke-linejoin="round"/>
<path d="M11.5673 34.3265C6.44068 34.2258 8.13278 26.149 8.13278 26.149C8.13278 26.149 15.0962 30.59 11.5673 34.3265Z" stroke="white" stroke-width="1.25806" stroke-linecap="round" stroke-linejoin="round"/>
<path d="M11.6936 42.8935C7.42877 45.7305 4.2207 38.1506 4.2207 38.1506C4.2207 38.1506 12.4484 37.8172 11.6936 42.8935Z" stroke="white" stroke-width="1.25806" stroke-linecap="round" stroke-linejoin="round"/>
<path d="M14.6316 51.0081C11.4865 55.0528 6.03906 48.8757 6.03906 48.8757C6.03906 48.8757 13.7384 45.957 14.6316 51.0081Z" stroke="white" stroke-width="1.25806" stroke-linecap="round" stroke-linejoin="round"/>
<path d="M20.3622 58.5001C18.2424 63.155 11.5117 58.3743 11.5117 58.3743C11.5117 58.3743 18.343 53.7824 20.3622 58.5001Z" stroke="white" stroke-width="1.25806" stroke-linecap="round" stroke-linejoin="round"/>
<path d="M56.6137 18.871C62.3379 23.551 65.9674 31.2189 65.9674 39.1887C66.0057 44.6708 64.2525 50.0153 60.9744 54.4095C57.6964 58.8036 53.0729 62.007 47.8072 63.5323C43.404 64.7903 37.1137 66.0484 35.2266 71.0806" stroke="white" stroke-width="1.25806" stroke-linecap="round" stroke-linejoin="round"/>
<path d="M21.3875 18.871C15.6633 23.551 12.0338 31.2189 12.0338 39.1887C11.9955 44.6708 13.7487 50.0153 17.0268 54.4095C20.3048 58.8036 24.9283 62.007 30.194 63.5323C34.5972 64.7903 40.8875 66.0484 42.7746 71.0806" stroke="white" stroke-width="1.25806" stroke-linecap="round" stroke-linejoin="round"/>
</svg>
