<svg width="45" height="45" viewBox="0 0 45 45" fill="none" xmlns="http://www.w3.org/2000/svg">
<path d="M22.5 17.25C28.6992 17.25 34.3034 17.8642 38.3506 18.8535C40.3759 19.3486 41.9973 19.9343 43.1064 20.5752C44.2339 21.2268 44.75 21.8863 44.75 22.5C44.75 23.1137 44.2339 23.7732 43.1064 24.4248C41.9973 25.0657 40.3759 25.6514 38.3506 26.1465C34.3034 27.1358 28.6992 27.75 22.5 27.75C16.3008 27.75 10.6966 27.1358 6.64941 26.1465C4.62413 25.6514 3.00267 25.0657 1.89355 24.4248C0.766061 23.7732 0.25 23.1137 0.25 22.5C0.25 21.8863 0.766061 21.2268 1.89355 20.5752C3.00267 19.9343 4.62413 19.3486 6.64941 18.8535C10.6966 17.8642 16.3008 17.25 22.5 17.25Z" stroke="white" stroke-width="0.5"/>
<path d="M18.7879 18.7876C23.1714 14.4041 27.5684 10.8757 31.1298 8.71343C32.9119 7.6314 34.4726 6.89901 35.7101 6.56794C36.9681 6.23144 37.7994 6.33288 38.2333 6.76681C38.6672 7.20074 38.7687 8.032 38.4322 9.29002C38.1011 10.5275 37.3687 12.0882 36.2867 13.8703C34.1244 17.4317 30.596 21.8287 26.2125 26.2122C21.8289 30.5958 17.4319 34.1242 13.8706 36.2864C12.0884 37.3685 10.5277 38.1009 9.29025 38.4319C8.03223 38.7684 7.20096 38.667 6.76704 38.2331C6.33311 37.7991 6.23166 36.9679 6.56816 35.7099C6.89923 34.4724 7.63163 32.9117 8.71365 31.1295C10.8759 27.5682 14.4043 23.1712 18.7879 18.7876Z" stroke="white" stroke-width="0.5"/>
<path d="M17.25 22.5C17.25 16.3008 17.8642 10.6966 18.8535 6.64941C19.3486 4.62413 19.9343 3.00267 20.5752 1.89355C21.2268 0.766061 21.8863 0.25 22.5 0.25C23.1137 0.25 23.7732 0.766061 24.4248 1.89355C25.0657 3.00267 25.6514 4.62413 26.1465 6.64941C27.1358 10.6966 27.75 16.3008 27.75 22.5C27.75 28.6992 27.1358 34.3034 26.1465 38.3506C25.6514 40.3759 25.0657 41.9973 24.4248 43.1064C23.7732 44.2339 23.1137 44.75 22.5 44.75C21.8863 44.75 21.2268 44.2339 20.5752 43.1064C19.9343 41.9973 19.3486 40.3759 18.8535 38.3506C17.8642 34.3034 17.25 28.6992 17.25 22.5Z" stroke="white" stroke-width="0.5"/>
<path d="M18.7874 26.2123C14.4039 21.8287 10.8754 17.4317 8.71318 13.8704C7.63115 12.0882 6.89876 10.5275 6.56769 9.29005C6.23119 8.03203 6.33264 7.20076 6.76656 6.76684C7.20049 6.33291 8.03176 6.23147 9.28978 6.56796C10.5272 6.89904 12.0879 7.63143 13.8701 8.71345C17.4314 10.8757 21.8285 14.4041 26.212 18.7877C30.5955 23.1712 34.124 27.5682 36.2862 31.1296C37.3682 32.9117 38.1006 34.4724 38.4317 35.7099C38.7682 36.9679 38.6667 37.7992 38.2328 38.2331C37.7989 38.667 36.9676 38.7685 35.7096 38.432C34.4722 38.1009 32.9115 37.3685 31.1293 36.2865C27.568 34.1242 23.1709 30.5958 18.7874 26.2123Z" stroke="white" stroke-width="0.5"/>
</svg>
