<svg width="14" height="16" viewBox="0 0 14 16" fill="none" xmlns="http://www.w3.org/2000/svg">
<path d="M13.7972 15.1758C13.7434 15.2738 13.6642 15.3556 13.568 15.4126C13.4719 15.4696 13.3621 15.4998 13.2503 15.5H9.5003C9.39511 15.5 9.29164 15.4734 9.19945 15.4227C9.10727 15.3721 9.02937 15.2989 8.97296 15.2102L5.80968 10.2391L1.2128 15.2953C1.10074 15.4157 0.945753 15.487 0.781434 15.4939C0.617115 15.5008 0.456712 15.4426 0.335001 15.332C0.21329 15.2214 0.140081 15.0673 0.131246 14.903C0.122411 14.7388 0.178662 14.5777 0.287804 14.4547L5.11358 9.14219L0.22296 1.46094C0.162727 1.36644 0.129009 1.25749 0.125336 1.14548C0.121663 1.03348 0.148171 0.922555 0.202083 0.824314C0.255996 0.726073 0.33533 0.644135 0.431779 0.587078C0.528227 0.530021 0.638242 0.499946 0.750304 0.5H4.5003C4.60549 0.500033 4.70897 0.526613 4.80115 0.57728C4.89334 0.627946 4.97124 0.701058 5.02765 0.789844L8.19093 5.76094L12.7878 0.704687C12.8999 0.584312 13.0549 0.512956 13.2192 0.50609C13.3835 0.499225 13.5439 0.557404 13.6656 0.668012C13.7873 0.778621 13.8605 0.932746 13.8694 1.09697C13.8782 1.2612 13.8219 1.42228 13.7128 1.54531L8.88702 6.85391L13.7776 14.5398C13.8375 14.6344 13.871 14.7433 13.8744 14.8551C13.8778 14.967 13.8512 15.0777 13.7972 15.1758Z" fill="#333333"/>
</svg>
