<svg width="63" height="63" viewBox="0 0 63 63" fill="none" xmlns="http://www.w3.org/2000/svg">
<path d="M62.2994 27.6815H49.5875H40.7154L55.9776 12.4194C56.2501 12.1469 56.2501 11.7052 55.9776 11.4327L51.5643 7.0195C51.2919 6.74703 50.8502 6.74703 50.5777 7.0195L35.3156 22.2815V0.697704C35.3156 0.312359 35.0033 -1.52588e-05 34.618 -1.52588e-05H28.3767C27.9913 -1.52588e-05 27.6789 0.312359 27.6789 0.697704V22.2817L12.4168 7.0195C12.1443 6.74703 11.7026 6.74703 11.43 7.0195L7.01685 11.4327C6.74438 11.7052 6.74438 12.1469 7.01685 12.4194L17.6604 23.063C18.8161 24.2186 20.3833 24.8678 22.0176 24.8678H31.9208C35.3673 24.8678 38.1612 27.6617 38.1612 31.1082V41.0113C38.1612 42.6456 38.8104 44.2129 39.9661 45.3685L50.5777 55.9802C50.8502 56.2525 51.2919 56.2525 51.5643 55.9802L55.9776 51.5669C56.2501 51.2945 56.2501 50.8526 55.9776 50.5803L40.7154 35.3182H62.2993C62.6847 35.3182 62.9971 35.0057 62.9971 34.6204V28.3792C62.9971 27.9938 62.6848 27.6815 62.2994 27.6815Z" fill="#D1E40F"/>
<path d="M22.2814 27.6812H0.697615C0.312268 27.6812 0 27.9936 0 28.3788V34.6202C0 35.0056 0.312373 35.3179 0.697615 35.3179H22.2814L7.01931 50.58C6.74683 50.8524 6.74683 51.2942 7.01931 51.5667L11.4324 55.9799C11.705 56.2523 12.1467 56.2523 12.4192 55.9799L27.6814 40.7177V62.3017C27.6814 62.6869 27.9938 62.9993 28.3791 62.9993H34.6205C35.0057 62.9993 35.318 62.6871 35.3181 62.3018V31.1592C35.3181 29.2324 33.7561 27.6704 31.8293 27.6704L22.2814 27.6812Z" fill="#D1E40F"/>
</svg>
