<svg width="13" height="13" viewBox="0 0 13 13" fill="none" xmlns="http://www.w3.org/2000/svg">
<path d="M7.78085 0.00377274H0.243613C0.109047 0.00377274 0 0.112857 0 0.247387V2.42693C0 2.56149 0.109083 2.67058 0.243613 2.67058H7.78085L2.4512 8.00022C2.35605 8.09534 2.35605 8.24963 2.4512 8.34478L3.9923 9.88592C4.08749 9.98103 4.24175 9.98103 4.3369 9.88592L9.66658 4.55623V12.0935C9.66658 12.2281 9.77566 12.3372 9.91023 12.3372H12.0898C12.2243 12.3372 12.3333 12.2281 12.3334 12.0936V1.21832C12.3334 0.545449 11.7879 -3.8147e-06 11.1151 -3.8147e-06L7.78085 0.00377274Z" fill="#D1E40F"/>
</svg>
