<svg width="18" height="14" viewBox="0 0 18 14" fill="none" xmlns="http://www.w3.org/2000/svg">
<path d="M17.307 2.43125C17.2334 2.14324 17.0924 1.87686 16.8955 1.65409C16.6987 1.43132 16.4517 1.25854 16.175 1.15C13.4969 0.115628 9.23438 0.125003 9 0.125003C8.76562 0.125003 4.50312 0.115628 1.825 1.15C1.54825 1.25854 1.30128 1.43132 1.10445 1.65409C0.907621 1.87686 0.766582 2.14324 0.692969 2.43125C0.490625 3.21094 0.25 4.63594 0.25 7C0.25 9.36407 0.490625 10.7891 0.692969 11.5688C0.766472 11.8569 0.907461 12.1234 1.1043 12.3464C1.30113 12.5693 1.54816 12.7422 1.825 12.8508C4.39062 13.8406 8.40625 13.875 8.94844 13.875H9.05156C9.59375 13.875 13.6117 13.8406 16.175 12.8508C16.4518 12.7422 16.6989 12.5693 16.8957 12.3464C17.0925 12.1234 17.2335 11.8569 17.307 11.5688C17.5094 10.7875 17.75 9.36407 17.75 7C17.75 4.63594 17.5094 3.21094 17.307 2.43125ZM11.5461 7.50938L8.42109 9.69688C8.32761 9.76236 8.21799 9.801 8.1041 9.8086C7.99022 9.8162 7.87643 9.79247 7.77508 9.73998C7.67373 9.68749 7.58868 9.60826 7.52917 9.51086C7.46966 9.41347 7.43796 9.30164 7.4375 9.1875V4.8125C7.43753 4.69817 7.46893 4.58603 7.52827 4.4883C7.5876 4.39057 7.67261 4.31099 7.77404 4.25823C7.87547 4.20546 7.98943 4.18152 8.10352 4.18903C8.21761 4.19653 8.32745 4.23518 8.42109 4.30078L11.5461 6.48828C11.6283 6.54593 11.6954 6.62253 11.7417 6.7116C11.7881 6.80068 11.8123 6.8996 11.8123 7C11.8122 7.1004 11.7881 7.19933 11.7417 7.2884C11.6954 7.37747 11.6283 7.45408 11.5461 7.51172V7.50938Z" fill="#333333"/>
</svg>
